PathFileType	4	(X/Y/Z)	/Users/itak/Documents/Research/Walk-IL/dataset/trc/00511_00183.trc
DataRate	CameraRate	NumFrames	NumMarkers	Units	OrigDataRate	OrigDataStartFrame	OrigNumFrames
100.000000	100.000000	4	53	mm	100.000000	337	386
Frame#	Time	RPSI			LPSI			L3			STRN			T10			C7			CLAV			RBAK			LBAK			LSHO			LUPA			LAEL			LAOL			LWTS			LWPS			LFRA			LIFD			LHPS			LHTS			RSHO			RUPA			RAEL			RAOL			RWTS			RWPS			RFRA			RIFD			RHTS			RHPS			RBHD			LFHD			RFHD			LBHD			LHIP			RHIP			RASI			LASI			LKNE			LTHI			LANK			LTIP			LTOE			LMT1			LMT5			LHEE			RKNE			RTHI			RANK			RTIP			RTOE			RMT1			RMT5			RHEE			
		X1	Y1	Z1	X2	Y2	Z2	X3	Y3	Z3	X4	Y4	Z4	X5	Y5	Z5	X6	Y6	Z6	X7	Y7	Z7	X8	Y8	Z8	X9	Y9	Z9	X10	Y10	Z10	X11	Y11	Z11	X12	Y12	Z12	X13	Y13	Z13	X14	Y14	Z14	X15	Y15	Z15	X16	Y16	Z16	X17	Y17	Z17	X18	Y18	Z18	X19	Y19	Z19	X20	Y20	Z20	X21	Y21	Z21	X22	Y22	Z22	X23	Y23	Z23	X24	Y24	Z24	X25	Y25	Z25	X26	Y26	Z26	X27	Y27	Z27	X28	Y28	Z28	X29	Y29	Z29	X30	Y30	Z30	X31	Y31	Z31	X32	Y32	Z32	X33	Y33	Z33	X34	Y34	Z34	X35	Y35	Z35	X36	Y36	Z36	X37	Y37	Z37	X38	Y38	Z38	X39	Y39	Z39	X40	Y40	Z40	X41	Y41	Z41	X42	Y42	Z42	X43	Y43	Z43	X44	Y44	Z44	X45	Y45	Z45	X46	Y46	Z46	X47	Y47	Z47	X48	Y48	Z48	X49	Y49	Z49	X50	Y50	Z50	X51	Y51	Z51	X52	Y52	Z52	X53	Y53	Z53	

338	3.37	1207.068237304688	957.0560913085938	1123.349609375	1275.87646484375	958.8529663085938	1020.968139648438	1245.273803710938	1029.905517578125	1067.560180664062	1436.6748046875	1189.250610351562	1174.29638671875	1233.358276367188	1131.817626953125	1062.567504882812	1271.268432617188	1362.766479492188	1084.4541015625	1405.536987304688	1284.540405273438	1156.6181640625	1186.17236328125	1241.694702148438	1135.447631835938	1289.4228515625	1308.061889648438	997.52197265625	1407.65283203125	1352.52490234375	976.4887084960938	1412.328735351562	1229.627807617188	910.3731689453125	1410.028930664062	1033.41796875	885.6036376953125	1313.274047851562	1018.123291015625	909.6300048828125	1532.899780273438	924.819580078125	1009.324279785156	1498.542724609375	847.5105590820312	967.7636108398438	1448.2109375	977.79296875	910.2906494140625	1559.499145507812	812.390625	1096.438598632812	1536.044067382812	814.862060546875	998.3101196289062	1575.76171875	857.830078125	1028.679565429688	1246.949340820312	1354.840087890625	1239.77783203125	1199.682739257812	1289.564819335938	1278.13671875	1174.370361328125	1028.163818359375	1317.48974609375	1143.190063476562	1001.712768554688	1264.410522460938	1358.341674804688	911.4491577148438	1346.2158203125	1294.087036132812	859.3788452148438	1384.275146484375	1191.44091796875	982.33056640625	1331.180908203125	1429.523315429688	771.4647827148438	1372.166870117188	1409.652099609375	839.0274047851562	1387.59521484375	1347.396606445312	805.211181640625	1399.358154296875	1251.587646484375	1506.776123046875	1159.795532226562	1429.74853515625	1589.004272460938	1119.82080078125	1350.723876953125	1581.776977539062	1218.172973632812	1339.147827148438	1508.040283203125	1028.110229492188	1435.68115234375	886.7680053710938	964.7547607421875	1227.734252929688	855.1177368164062	1283.959350585938	1347.519409179688	901.4603881835938	1281.210693359375	1476.93115234375	916.97314453125	1075.834716796875	1411.435668945312	464.9928588867188	994.4442749023438	1445.56689453125	622.468017578125	987.6602172851562	1256.368041992188	50.96800231933594	895.3486328125	1364.89501953125	321.2398376464844	955.3300170898438	1381.775268554688	24.40406227111816	1059.539428710938	1302.909057617188	36.32080078125	1038.4794921875	1351.821166992188	34.03261566162109	950.1326293945312	1183.08984375	52.08962631225586	920.7498779296875	1267.379150390625	465.2848815917969	1241.201171875	1254.732788085938	725.3228149414062	1292.513427734375	1222.262329101562	38.71020126342773	1143.645751953125	1278.744506835938	320.3912658691406	1210.940673828125	1418.265869140625	28.21866607666016	1205.628295898438	1378.122802734375	33.97560501098633	1140.818725585938	1312.975341796875	33.0798454284668	1213.117919921875	1198.883422851562	28.33554458618164	1076.681030273438	
339	3.38	1207.520385742188	956.8715209960938	1123.63818359375	1276.264404296875	958.7147827148438	1021.253479003906	1245.740844726562	1029.652099609375	1067.59912109375	1437.073364257812	1189.014282226562	1174.329223632812	1233.768920898438	1131.572387695312	1062.737060546875	1271.59375	1362.53369140625	1084.601440429688	1405.880126953125	1284.290405273438	1156.678833007812	1186.498657226562	1241.397216796875	1135.640991210938	1289.7041015625	1307.787231445312	997.7227783203125	1407.940795898438	1352.239990234375	976.5162963867188	1412.624633789062	1229.387329101562	910.3833618164062	1410.36669921875	1033.046630859375	885.7304077148438	1313.70166015625	1017.901550292969	909.666015625	1532.969482421875	924.3682861328125	1009.741333007812	1498.72216796875	847.0986328125	967.9686279296875	1448.468994140625	977.4119262695312	910.49658203125	1559.098266601562	811.832275390625	1096.864990234375	1536.03662109375	814.3861694335938	998.6392822265625	1575.67529296875	857.330810546875	1029.21142578125	1247.255859375	1354.532348632812	1239.910522460938	1199.994140625	1289.29052734375	1278.251831054688	1174.322998046875	1027.732421875	1317.18359375	1143.35693359375	1001.484802246094	1264.089233398438	1358.162719726562	910.8287963867188	1346.187255859375	1293.703491210938	858.7180786132812	1383.867431640625	1191.332885742188	981.9346923828125	1330.89306640625	1429.064819335938	770.7423095703125	1372.271240234375	1409.2265625	838.2438354492188	1387.650024414062	1346.896240234375	804.696044921875	1399.335083007812	1251.956298828125	1506.510131835938	1160.056274414062	1430.172485351562	1588.820556640625	1120.326538085938	1351.075805664062	1581.381469726562	1218.561279296875	1339.584838867188	1508.00732421875	1028.412109375	1436.522705078125	887.4237670898438	963.7098388671875	1228.185668945312	855.1176147460938	1284.261840820312	1348.03759765625	901.4061889648438	1281.446655273438	1477.445922851562	916.6991577148438	1075.93994140625	1411.523193359375	464.767333984375	994.3328247070312	1445.8828125	622.216796875	987.6715698242188	1256.4541015625	50.75519561767578	895.2308959960938	1364.8720703125	321.1138610839844	955.1817016601562	1381.71630859375	24.39558219909668	1059.470092773438	1302.853515625	36.22323989868164	1038.420166015625	1351.810180664062	33.87652206420898	950.0964965820312	1183.1044921875	51.95697784423828	920.4482421875	1267.388916015625	465.191162109375	1241.194213867188	1255.093627929688	725.3294677734375	1292.782836914062	1222.265747070312	38.72930908203125	1143.649291992188	1278.723754882812	320.3792724609375	1210.91357421875	1418.267700195312	28.21935272216797	1205.62060546875	1378.126953125	33.96906661987305	1140.791015625	1312.96630859375	33.08985900878906	1213.080078125	1198.95849609375	28.26120185852051	1076.622680664062	
340	3.39	1207.942138671875	956.7000122070312	1123.860473632812	1276.676147460938	958.5524291992188	1021.474182128906	1246.19140625	1029.392456054688	1067.5859375	1437.430786132812	1188.77294921875	1174.346435546875	1234.145751953125	1131.313720703125	1062.886352539062	1271.890869140625	1362.307861328125	1084.685913085938	1406.18310546875	1284.044799804688	1156.724975585938	1186.803466796875	1241.089111328125	1135.7802734375	1289.954956054688	1307.515869140625	997.8914794921875	1408.206665039062	1351.955200195312	976.5357055664062	1412.916748046875	1229.153442382812	910.3873291015625	1410.730346679688	1032.686645507812	885.850341796875	1314.120483398438	1017.661987304688	909.6783447265625	1533.021484375	923.9134521484375	1010.175415039062	1498.907348632812	846.6952514648438	968.1810302734375	1448.732299804688	977.0342407226562	910.7055053710938	1558.634521484375	811.24755859375	1097.303344726562	1536.010131835938	813.9009399414062	998.9772338867188	1575.563842773438	856.8084716796875	1029.767456054688	1247.5185546875	1354.21923828125	1240.018798828125	1200.28564453125	1289.047729492188	1278.338256835938	1174.296142578125	1027.322875976562	1316.8720703125	1143.498779296875	1001.286437988281	1263.771240234375	1357.94921875	910.1697998046875	1346.062255859375	1293.331665039062	858.0791015625	1383.448974609375	1191.24267578125	981.5578002929688	1330.5869140625	1428.568237304688	769.919189453125	1372.254028320312	1408.81689453125	837.4705200195312	1387.665161132812	1346.429931640625	804.192138671875	1399.313110351562	1252.272338867188	1506.219482421875	1160.272827148438	1430.569580078125	1588.645385742188	1120.774169921875	1351.405151367188	1581.02392578125	1218.916625976562	1339.98583984375	1507.948486328125	1028.68310546875	1437.305419921875	887.9588012695312	962.7666015625	1228.598266601562	855.1097412109375	1284.448486328125	1348.469116210938	901.33154296875	1281.612670898438	1477.942504882812	916.4320068359375	1076.019775390625	1411.63232421875	464.53955078125	994.2420654296875	1446.164184570312	621.957763671875	987.68115234375	1256.534423828125	50.56785202026367	895.1388549804688	1364.856689453125	320.9840698242188	955.0546264648438	1381.657958984375	24.3854866027832	1059.406982421875	1302.782470703125	36.11659240722656	1038.373291015625	1351.795288085938	33.7393913269043	950.0720825195312	1183.121459960938	51.83069610595703	920.1529541015625	1267.419189453125	465.090087890625	1241.177734375	1255.367431640625	725.3150634765625	1292.981811523438	1222.272216796875	38.75764846801758	1143.651245117188	1278.748657226562	320.4268188476562	1210.915283203125	1418.2734375	28.22051429748535	1205.612915039062	1378.133544921875	33.96142959594727	1140.764038085938	1312.96875	33.10562896728516	1213.038208007812	1199.033813476562	28.20681190490723	1076.577514648438	
341	3.4	1208.342651367188	956.5480346679688	1124.00390625	1277.13720703125	958.3557739257812	1021.613525390625	1246.61962890625	1029.146606445312	1067.530151367188	1437.738037109375	1188.533203125	1174.349731445312	1234.49169921875	1131.050537109375	1062.999267578125	1272.170166015625	1362.091552734375	1084.711059570312	1406.446533203125	1283.808959960938	1156.756713867188	1187.092529296875	1240.78271484375	1135.859130859375	1290.178955078125	1307.253173828125	998.0204467773438	1408.450439453125	1351.685302734375	976.5492553710938	1413.201293945312	1228.928344726562	910.3890380859375	1411.115234375	1032.339233398438	885.9698486328125	1314.519653320312	1017.407043457031	909.6679077148438	1533.061767578125	923.4515380859375	1010.615661621094	1499.080688476562	846.2977294921875	968.4087524414062	1448.999389648438	976.658447265625	910.9218139648438	1558.132690429688	810.6423950195312	1097.748291015625	1535.958251953125	813.4063110351562	999.3250122070312	1575.434692382812	856.2606811523438	1030.330688476562	1247.741577148438	1353.90478515625	1240.096923828125	1200.550903320312	1288.82861328125	1278.392944335938	1174.298095703125	1026.938842773438	1316.561401367188	1143.616821289062	1001.109252929688	1263.453369140625	1357.714111328125	909.467529296875	1345.843994140625	1292.9833984375	857.4708251953125	1383.036254882812	1191.171997070312	981.193359375	1330.266967773438	1428.043579101562	768.9852294921875	1372.133911132812	1408.428833007812	836.701171875	1387.6474609375	1346.00146484375	803.6773681640625	1399.263427734375	1252.539916992188	1505.919555664062	1160.440673828125	1430.939453125	1588.475952148438	1121.165893554688	1351.709228515625	1580.69970703125	1219.236694335938	1340.3544921875	1507.874267578125	1028.929443359375	1437.952026367188	888.1975708007812	962.1463623046875	1228.970825195312	855.090087890625	1284.522583007812	1348.828857421875	901.2208251953125	1281.697875976562	1478.413208007812	916.1748046875	1076.076049804688	1411.759521484375	464.3165588378906	994.17333984375	1446.405883789062	621.6939086914062	987.6923828125	1256.603271484375	50.4053955078125	895.0784912109375	1364.84814453125	320.8514709472656	954.950927734375	1381.595336914062	24.37211227416992	1059.351684570312	1302.69140625	36.00662231445312	1038.339965820312	1351.775268554688	33.62173461914062	950.0596313476562	1183.137084960938	51.70864868164062	919.8863525390625	1267.458984375	464.9845581054688	1241.150634765625	1255.56982421875	725.2642211914062	1293.099975585938	1222.278930664062	38.78818130493164	1143.645263671875	1278.799438476562	320.5138854980469	1210.93212890625	1418.283447265625	28.22323226928711	1205.605224609375	1378.141235351562	33.95379257202148	1140.7392578125	1312.979858398438	33.12648010253906	1212.9931640625	1199.102661132812	28.16615104675293	1076.542114257812	
